<svg width="300" height="300" viewBox="0 0 300 300" fill="none" xmlns="http://www.w3.org/2000/svg">
<rect width="300" height="300" rx="50" fill="#0D6EFD"/>
<path d="M52.6 219V89.4H102.64C103.9 89.4 105.31 89.46 106.87 89.58C108.49 89.64 110.11 89.82 111.73 90.12C118.51 91.14 124.24 93.51 128.92 97.23C133.66 100.89 137.23 105.51 139.63 111.09C142.09 116.67 143.32 122.85 143.32 129.63C143.32 139.41 140.74 147.9 135.58 155.1C130.42 162.3 123.04 166.83 113.44 168.69L108.85 169.77H65.83V219H52.6ZM131.08 219L105.52 166.26L118.21 161.4L146.29 219H131.08ZM65.83 157.17H102.28C103.36 157.17 104.62 157.11 106.06 156.99C107.5 156.87 108.91 156.66 110.29 156.36C114.73 155.4 118.36 153.57 121.18 150.87C124.06 148.17 126.19 144.96 127.57 141.24C129.01 137.52 129.73 133.65 129.73 129.63C129.73 125.61 129.01 121.74 127.57 118.02C126.19 114.24 124.06 111 121.18 108.3C118.36 105.6 114.73 103.77 110.29 102.81C108.91 102.51 107.5 102.33 106.06 102.27C104.62 102.15 103.36 102.09 102.28 102.09H65.83V157.17ZM200.355 236.73V216.21H213.585V236.73H200.355ZM200.355 92.1V71.49H213.585V92.1H200.355ZM208.545 221.7C199.965 221.7 192.225 220.17 185.325 217.11C178.485 214.05 172.815 209.73 168.315 204.15C163.875 198.57 160.965 191.97 159.585 184.35L172.455 182.1C174.435 190.38 178.695 196.95 185.235 201.81C191.835 206.61 199.785 209.01 209.085 209.01C218.505 209.01 226.125 206.73 231.945 202.17C237.765 197.55 240.675 191.52 240.675 184.08C240.675 178.56 239.055 174.15 235.815 170.85C232.575 167.55 227.085 164.73 219.345 162.39L190.545 153.39C173.145 147.93 164.445 137.61 164.445 122.43C164.445 115.35 166.185 109.14 169.665 103.8C173.205 98.4 178.095 94.2 184.335 91.2C190.635 88.2 197.985 86.73 206.385 86.79C214.605 86.79 221.955 88.35 228.435 91.47C234.975 94.53 240.345 98.88 244.545 104.52C248.745 110.16 251.535 116.85 252.915 124.59L239.685 127.11C238.845 121.59 236.895 116.76 233.835 112.62C230.835 108.48 226.965 105.27 222.225 102.99C217.485 100.65 212.205 99.45 206.385 99.39C200.865 99.39 195.945 100.35 191.625 102.27C187.305 104.19 183.885 106.86 181.365 110.28C178.905 113.64 177.675 117.51 177.675 121.89C177.675 126.69 179.385 130.77 182.805 134.13C186.285 137.43 191.775 140.22 199.275 142.5L224.025 149.97C234.465 153.09 241.995 157.29 246.615 162.57C251.235 167.85 253.545 174.9 253.545 183.72C253.545 191.34 251.685 198 247.965 203.7C244.245 209.4 238.995 213.84 232.215 217.02C225.495 220.14 217.605 221.7 208.545 221.7Z" fill="white"/>
</svg>
